<svg xmlns="http://www.w3.org/2000/svg" viewBox="0 0 1250 150"><path d="M1025.09,124.83a871.5,871.5,0,0,1-132.75,7,552.25,552.25,0,0,1-58.84-5.22,109.79,109.79,0,0,1-20.56-4.78c-17.79,7.32-42.88,11.71-42.88,11.71-14.89,2.43-62.24,7.37-99,6.41-49.11-1.28-131.92-2.28-216.86-14.88-14.87-2.21-105-14.44-116.91-15.41-95.38-9.8-162.54-10-162.54-10-17.22-.09-32.85-.2-48.48-.31,0,0-69.27-.92-126.25,2.14V150H1250V101.48q-5.77.39-11.41.79S1179.16,107,1025.09,124.83Z" fill="#fcfbf8"/><path d="M1236.52,93.8c-27.79,2-89.72,9.31-92.19,9.64-115.83,14-180.24,20.33-180.24,20.33-72.21,5.42-113.87-.19-113.87-.19A276.84,276.84,0,0,1,820.45,119v-.16a10.9,10.9,0,0,1,1.57-.67,182,182,0,0,0,46.54-26.78,170.42,170.42,0,0,0,16.27-14.59c8.36-8.59,14.66-17.25,17.94-24.65a44.22,44.22,0,0,0,3.58-13.79,38.59,38.59,0,0,0,0-6.45,26.39,26.39,0,0,0-5.24-13.56,30.44,30.44,0,0,0-9.18-7.79C886.22,7.32,878.78,5.06,870,3.93A53.37,53.37,0,0,0,829.56,15,73.23,73.23,0,0,0,817,27.63a79.76,79.76,0,0,0-7.62,11.72c-.36.72-.43.83-.49.76a3.35,3.35,0,0,1-.17-.62,32.42,32.42,0,0,0-4.56-10.33A49.31,49.31,0,0,0,790,15.35c-6.36-4.14-17.39-7.67-26.89-8.58A43.64,43.64,0,0,0,746.42,8a24.64,24.64,0,0,0-9.65,5.17,21.46,21.46,0,0,0-4.84,6.05,38.33,38.33,0,0,0-3.87,12.71,57.17,57.17,0,0,0-.14,7.17,52.53,52.53,0,0,0,6.19,20.29c3.84,7.45,9.28,15,17.06,23.56A119,119,0,0,0,765.58,97c10,8.09,21.74,14.61,35.84,19.85a3.55,3.55,0,0,1,1.07.48c-16.8,6.63-48.91,10.83-48.91,10.83-9.88,1-19.06,1.8-27.45,2.32-99.81,4.86-185-4.19-238.43-11.06-25.22-3.24-54.05-8-93.92-13.8C374.07,102.72,255,86.15,126.14,88.79c0,0-72.72-.2-126.14,4v8.72c57-3.06,126.25-2.14,126.25-2.14,15.63.11,31.26.22,48.48.31,0,0,67.16.24,162.54,10,11.92,1,102,13.2,116.91,15.41C539.12,137.7,621.93,138.7,671,140c36.78,1,84.13-4,99-6.41,0,0,25.09-4.39,42.88-11.71a109.79,109.79,0,0,0,20.56,4.78,552.25,552.25,0,0,0,58.84,5.22,871.5,871.5,0,0,0,132.75-7c154.07-17.87,213.5-22.56,213.5-22.56q5.63-.4,11.41-.79V92.76Q1243.28,93.26,1236.52,93.8ZM808.2,115.25h0a6.28,6.28,0,0,1-.83.29s-.5-.13-1-.27A103.3,103.3,0,0,1,773,99.38a95.74,95.74,0,0,1-29-33.55,67.39,67.39,0,0,1-7.07-21.31,32.57,32.57,0,0,1-.14-7c1-9.2,5.34-16.33,12.47-20.59a33.59,33.59,0,0,1,14.94-4.42,62.62,62.62,0,0,1,18.89,1.88A24.45,24.45,0,0,1,792.3,19a31.59,31.59,0,0,1,2.81,2.74A32.34,32.34,0,0,1,802,37.06a61.59,61.59,0,0,1,1,10.59l0,.88.24.2c1.28,1.07,8.18,4,9.31,3.91h.25l.49-.94c.77-1.48,3-5.45,3.85-6.88a89.13,89.13,0,0,1,17.11-21.26,58,58,0,0,1,14.92-9.75A67.78,67.78,0,0,1,865,9a45.28,45.28,0,0,1,12.24-.81,30,30,0,0,1,10.24,2.84,18.45,18.45,0,0,1,10.65,15.1,32.94,32.94,0,0,1-1.27,12.17C893.73,49.6,886.57,61.16,876,72a149.28,149.28,0,0,1-11.61,10.6c-12.52,10.24-28.24,19.9-45.77,28.12C815.69,112.09,810.55,114.32,808.2,115.25Z" fill="#f8ba43" opacity="0.2"/></svg>